<?xml version="1.0" encoding="utf-8"?>
<!-- Generator: Adobe Illustrator 27.5.0, SVG Export Plug-In . SVG Version: 6.00 Build 0)  -->
<svg version="1.1" xmlns="http://www.w3.org/2000/svg" xmlns:xlink="http://www.w3.org/1999/xlink" x="0px" y="0px"
	 viewBox="0 0 500 500" style="enable-background:new 0 0 500 500;" xml:space="preserve">
<g id="BACKGROUND">
	<radialGradient id="SVGID_1_" cx="249.999" cy="250" r="250" gradientUnits="userSpaceOnUse">
		<stop  offset="0" style="stop-color:#852C83"/>
		<stop  offset="1" style="stop-color:#612C83"/>
	</radialGradient>
	<rect x="-0.001" style="fill:url(#SVGID_1_);" width="500" height="500"/>
</g>
<g id="OBJECTS">
	<g>
		<polygon style="opacity:0.14;" points="60.986,226.741 103.812,251.423 197.089,197.817 154.304,173.142 		"/>
		<polygon style="fill:#7DD8C7;" points="68.627,143.288 104.287,163.84 187.401,115.847 151.775,95.3 		"/>
		<polygon style="fill:#509AAF;" points="68.627,143.288 104.287,163.84 104.287,246.073 68.627,225.52 		"/>
		<polygon style="fill:#428EA0;" points="104.287,163.84 187.401,115.847 187.401,198.08 104.287,246.073 		"/>
		<g>
			<path style="fill:#256372;" d="M139.889,158.561c0,0.845-0.685,1.93-1.531,2.422c-0.846,0.492-1.531,0.206-1.531-0.64
				c0-0.845,0.685-1.93,1.531-2.422C139.204,157.429,139.889,157.716,139.889,158.561z"/>
			<path style="fill:#256372;" d="M144.877,155.658c0,0.846-0.686,1.93-1.531,2.422c-0.845,0.492-1.531,0.206-1.531-0.64
				s0.685-1.93,1.531-2.422C144.191,154.527,144.877,154.813,144.877,155.658z"/>
			<path style="fill:#256372;" d="M149.864,152.756c0,0.845-0.685,1.93-1.531,2.422c-0.846,0.492-1.531,0.206-1.531-0.64
				c0-0.845,0.685-1.93,1.531-2.422C149.179,151.624,149.864,151.91,149.864,152.756z"/>
			<path style="fill:#256372;" d="M154.852,149.853c0,0.846-0.685,1.93-1.531,2.422c-0.846,0.492-1.531,0.206-1.531-0.64
				c0-0.845,0.685-1.93,1.531-2.422C154.166,148.721,154.852,149.008,154.852,149.853z"/>
			<path style="fill:#256372;" d="M159.839,146.951c0,0.845-0.685,1.93-1.531,2.422c-0.845,0.492-1.531,0.206-1.531-0.64
				s0.685-1.93,1.531-2.422C159.154,145.819,159.839,146.105,159.839,146.951z"/>
			<path style="fill:#256372;" d="M164.826,144.048c0,0.846-0.685,1.93-1.531,2.422c-0.845,0.492-1.531,0.205-1.531-0.64
				c0-0.845,0.685-1.93,1.531-2.422C164.141,142.916,164.826,143.202,164.826,144.048z"/>
			<path style="fill:#256372;" d="M169.814,141.145c0,0.846-0.685,1.93-1.531,2.422c-0.845,0.492-1.531,0.206-1.531-0.64
				s0.685-1.93,1.531-2.422C169.128,140.013,169.814,140.3,169.814,141.145z"/>
			<path style="fill:#256372;" d="M174.801,138.243c0,0.846-0.685,1.93-1.531,2.422c-0.845,0.492-1.531,0.206-1.531-0.64
				s0.685-1.93,1.531-2.422C174.116,137.111,174.801,137.397,174.801,138.243z"/>
			<path style="fill:#256372;" d="M179.789,135.34c0,0.846-0.685,1.93-1.531,2.422c-0.846,0.492-1.531,0.206-1.531-0.64
				s0.685-1.93,1.531-2.422C179.104,134.208,179.789,134.495,179.789,135.34z"/>
			<path style="fill:#256372;" d="M137.345,164.381c0,0.846-0.685,1.93-1.531,2.422c-0.845,0.492-1.531,0.205-1.531-0.64
				c0-0.846,0.685-1.93,1.531-2.422C136.66,163.249,137.345,163.535,137.345,164.381z"/>
			<path style="fill:#256372;" d="M142.333,161.478c0,0.846-0.685,1.93-1.531,2.422c-0.845,0.492-1.531,0.206-1.531-0.64
				c0-0.846,0.686-1.93,1.531-2.422C141.647,160.346,142.333,160.633,142.333,161.478z"/>
			<path style="fill:#256372;" d="M147.32,158.575c0,0.846-0.685,1.93-1.531,2.422c-0.845,0.492-1.531,0.206-1.531-0.64
				c0-0.845,0.685-1.93,1.531-2.422C146.635,157.443,147.32,157.73,147.32,158.575z"/>
			<path style="fill:#256372;" d="M152.308,155.673c0,0.846-0.685,1.93-1.531,2.422c-0.845,0.492-1.531,0.206-1.531-0.64
				c0-0.846,0.685-1.93,1.531-2.422C151.622,154.541,152.308,154.827,152.308,155.673z"/>
			<path style="fill:#256372;" d="M157.295,152.77c0,0.845-0.685,1.93-1.531,2.422c-0.846,0.492-1.531,0.206-1.531-0.64
				c0-0.845,0.685-1.93,1.531-2.422S157.295,151.924,157.295,152.77z"/>
			<path style="fill:#256372;" d="M162.283,149.867c0,0.846-0.685,1.93-1.531,2.422c-0.845,0.492-1.531,0.206-1.531-0.64
				c0-0.846,0.685-1.93,1.531-2.422C161.597,148.735,162.283,149.022,162.283,149.867z"/>
			<path style="fill:#256372;" d="M167.27,146.965c0,0.845-0.685,1.93-1.531,2.422s-1.531,0.206-1.531-0.64
				c0-0.846,0.685-1.93,1.531-2.422S167.27,146.119,167.27,146.965z"/>
			<path style="fill:#256372;" d="M172.258,144.062c0,0.845-0.685,1.93-1.531,2.422c-0.846,0.492-1.531,0.206-1.531-0.64
				c0-0.845,0.685-1.93,1.531-2.422C171.572,142.93,172.258,143.217,172.258,144.062z"/>
			<path style="fill:#256372;" d="M177.245,141.159c0,0.846-0.685,1.93-1.531,2.422c-0.846,0.492-1.531,0.206-1.531-0.64
				c0-0.846,0.685-1.93,1.531-2.422C176.56,140.027,177.245,140.314,177.245,141.159z"/>
			<path style="fill:#256372;" d="M139.889,167.239c0,0.845-0.685,1.93-1.531,2.422c-0.846,0.492-1.531,0.206-1.531-0.64
				s0.685-1.93,1.531-2.422C139.204,166.107,139.889,166.394,139.889,167.239z"/>
			<path style="fill:#256372;" d="M144.877,164.337c0,0.846-0.686,1.93-1.531,2.422c-0.845,0.492-1.531,0.205-1.531-0.64
				c0-0.846,0.685-1.93,1.531-2.422C144.191,163.205,144.877,163.491,144.877,164.337z"/>
			<path style="fill:#256372;" d="M149.864,161.434c0,0.846-0.685,1.93-1.531,2.422c-0.846,0.492-1.531,0.206-1.531-0.64
				c0-0.846,0.685-1.93,1.531-2.422C149.179,160.302,149.864,160.589,149.864,161.434z"/>
			<path style="fill:#256372;" d="M154.852,158.531c0,0.846-0.685,1.93-1.531,2.422c-0.846,0.492-1.531,0.206-1.531-0.64
				c0-0.845,0.685-1.93,1.531-2.422C154.166,157.399,154.852,157.686,154.852,158.531z"/>
			<path style="fill:#256372;" d="M159.839,155.629c0,0.846-0.685,1.93-1.531,2.422c-0.845,0.492-1.531,0.206-1.531-0.64
				c0-0.846,0.685-1.93,1.531-2.422C159.154,154.497,159.839,154.783,159.839,155.629z"/>
			<path style="fill:#256372;" d="M164.826,152.726c0,0.845-0.685,1.93-1.531,2.422c-0.845,0.492-1.531,0.206-1.531-0.64
				c0-0.846,0.685-1.93,1.531-2.422C164.141,151.594,164.826,151.881,164.826,152.726z"/>
			<path style="fill:#256372;" d="M169.814,149.824c0,0.846-0.685,1.93-1.531,2.422c-0.845,0.492-1.531,0.206-1.531-0.64
				c0-0.845,0.685-1.93,1.531-2.422C169.128,148.691,169.814,148.978,169.814,149.824z"/>
			<path style="fill:#256372;" d="M174.801,146.921c0,0.845-0.685,1.93-1.531,2.422c-0.845,0.492-1.531,0.206-1.531-0.64
				c0-0.846,0.685-1.93,1.531-2.422C174.116,145.789,174.801,146.075,174.801,146.921z"/>
			<path style="fill:#256372;" d="M179.789,144.018c0,0.845-0.685,1.93-1.531,2.422c-0.846,0.492-1.531,0.206-1.531-0.64
				c0-0.845,0.685-1.93,1.531-2.422C179.104,142.886,179.789,143.173,179.789,144.018z"/>
			<path style="fill:#256372;" d="M137.345,173.059c0,0.845-0.685,1.93-1.531,2.422c-0.845,0.492-1.531,0.206-1.531-0.64
				s0.685-1.93,1.531-2.422C136.66,171.927,137.345,172.213,137.345,173.059z"/>
			<path style="fill:#256372;" d="M142.333,170.156c0,0.845-0.685,1.93-1.531,2.422c-0.845,0.492-1.531,0.206-1.531-0.64
				c0-0.845,0.686-1.93,1.531-2.422C141.647,169.024,142.333,169.311,142.333,170.156z"/>
			<path style="fill:#256372;" d="M147.32,167.253c0,0.846-0.685,1.93-1.531,2.422c-0.845,0.492-1.531,0.206-1.531-0.64
				c0-0.845,0.685-1.93,1.531-2.422C146.635,166.122,147.32,166.408,147.32,167.253z"/>
			<path style="fill:#256372;" d="M152.308,164.351c0,0.845-0.685,1.93-1.531,2.422c-0.845,0.492-1.531,0.206-1.531-0.64
				s0.685-1.93,1.531-2.422C151.622,163.219,152.308,163.505,152.308,164.351z"/>
			<path style="fill:#256372;" d="M157.295,161.448c0,0.846-0.685,1.93-1.531,2.422s-1.531,0.206-1.531-0.64
				c0-0.845,0.685-1.93,1.531-2.422C156.61,160.316,157.295,160.603,157.295,161.448z"/>
			<path style="fill:#256372;" d="M162.283,158.546c0,0.846-0.685,1.93-1.531,2.422c-0.845,0.492-1.531,0.206-1.531-0.64
				s0.685-1.93,1.531-2.422C161.597,157.414,162.283,157.7,162.283,158.546z"/>
			<path style="fill:#256372;" d="M167.27,155.643c0,0.846-0.685,1.93-1.531,2.422c-0.846,0.492-1.531,0.206-1.531-0.64
				c0-0.845,0.685-1.93,1.531-2.422C166.585,154.511,167.27,154.797,167.27,155.643z"/>
			<path style="fill:#256372;" d="M172.258,152.74c0,0.846-0.685,1.93-1.531,2.422c-0.846,0.492-1.531,0.206-1.531-0.64
				s0.685-1.93,1.531-2.422C171.572,151.608,172.258,151.895,172.258,152.74z"/>
			<path style="fill:#256372;" d="M177.245,149.838c0,0.846-0.685,1.93-1.531,2.422c-0.846,0.492-1.531,0.206-1.531-0.64
				s0.685-1.93,1.531-2.422C176.56,148.706,177.245,148.992,177.245,149.838z"/>
			<path style="fill:#256372;" d="M139.889,175.918c0,0.846-0.685,1.93-1.531,2.422c-0.846,0.492-1.531,0.206-1.531-0.64
				c0-0.845,0.685-1.93,1.531-2.422C139.204,174.786,139.889,175.072,139.889,175.918z"/>
			<path style="fill:#256372;" d="M144.877,173.015c0,0.846-0.686,1.93-1.531,2.422c-0.845,0.492-1.531,0.206-1.531-0.64
				s0.685-1.93,1.531-2.422C144.191,171.883,144.877,172.169,144.877,173.015z"/>
			<path style="fill:#256372;" d="M149.864,170.112c0,0.845-0.685,1.93-1.531,2.422c-0.846,0.492-1.531,0.206-1.531-0.64
				c0-0.845,0.685-1.93,1.531-2.422C149.179,168.98,149.864,169.267,149.864,170.112z"/>
			<path style="fill:#256372;" d="M154.852,167.21c0,0.846-0.685,1.93-1.531,2.422c-0.846,0.492-1.531,0.206-1.531-0.64
				c0-0.845,0.685-1.93,1.531-2.422C154.166,166.078,154.852,166.364,154.852,167.21z"/>
			<path style="fill:#256372;" d="M159.839,164.307c0,0.845-0.685,1.93-1.531,2.422c-0.845,0.492-1.531,0.206-1.531-0.64
				s0.685-1.93,1.531-2.422C159.154,163.175,159.839,163.462,159.839,164.307z"/>
			<path style="fill:#256372;" d="M164.826,161.404c0,0.846-0.685,1.93-1.531,2.422c-0.845,0.492-1.531,0.205-1.531-0.64
				c0-0.845,0.685-1.93,1.531-2.422C164.141,160.272,164.826,160.559,164.826,161.404z"/>
			<path style="fill:#256372;" d="M169.814,158.502c0,0.846-0.685,1.93-1.531,2.422c-0.845,0.492-1.531,0.206-1.531-0.64
				s0.685-1.93,1.531-2.422C169.128,157.37,169.814,157.656,169.814,158.502z"/>
			<path style="fill:#256372;" d="M174.801,155.599c0,0.846-0.685,1.93-1.531,2.422c-0.845,0.492-1.531,0.206-1.531-0.64
				c0-0.845,0.685-1.93,1.531-2.422C174.116,154.467,174.801,154.753,174.801,155.599z"/>
			<path style="fill:#256372;" d="M179.789,152.696c0,0.846-0.685,1.93-1.531,2.422c-0.846,0.492-1.531,0.206-1.531-0.64
				s0.685-1.93,1.531-2.422C179.104,151.564,179.789,151.851,179.789,152.696z"/>
			<path style="fill:#256372;" d="M137.345,181.737c0,0.846-0.685,1.93-1.531,2.422c-0.845,0.492-1.531,0.205-1.531-0.64
				c0-0.846,0.685-1.93,1.531-2.422C136.66,180.605,137.345,180.891,137.345,181.737z"/>
			<path style="fill:#256372;" d="M142.333,178.834c0,0.846-0.685,1.93-1.531,2.422c-0.845,0.492-1.531,0.206-1.531-0.64
				s0.686-1.93,1.531-2.422C141.647,177.702,142.333,177.989,142.333,178.834z"/>
			<path style="fill:#256372;" d="M147.32,175.932c0,0.846-0.685,1.93-1.531,2.422c-0.845,0.492-1.531,0.205-1.531-0.64
				c0-0.845,0.685-1.93,1.531-2.422C146.635,174.8,147.32,175.086,147.32,175.932z"/>
			<path style="fill:#256372;" d="M152.308,173.029c0,0.846-0.685,1.93-1.531,2.422c-0.845,0.492-1.531,0.206-1.531-0.64
				c0-0.846,0.685-1.93,1.531-2.422C151.622,171.897,152.308,172.184,152.308,173.029z"/>
			<path style="fill:#256372;" d="M157.295,170.126c0,0.845-0.685,1.93-1.531,2.422c-0.846,0.492-1.531,0.206-1.531-0.64
				c0-0.846,0.685-1.93,1.531-2.422C156.61,168.994,157.295,169.281,157.295,170.126z"/>
			<path style="fill:#256372;" d="M162.283,167.224c0,0.846-0.685,1.93-1.531,2.422c-0.845,0.492-1.531,0.206-1.531-0.64
				c0-0.846,0.685-1.93,1.531-2.422C161.597,166.092,162.283,166.378,162.283,167.224z"/>
			<path style="fill:#256372;" d="M167.27,164.321c0,0.845-0.685,1.93-1.531,2.422c-0.846,0.492-1.531,0.206-1.531-0.64
				c0-0.846,0.685-1.93,1.531-2.422S167.27,163.476,167.27,164.321z"/>
			<path style="fill:#256372;" d="M172.258,161.419c0,0.846-0.685,1.93-1.531,2.422c-0.846,0.492-1.531,0.206-1.531-0.64
				c0-0.845,0.685-1.93,1.531-2.422C171.572,160.286,172.258,160.573,172.258,161.419z"/>
			<path style="fill:#256372;" d="M177.245,158.516c0,0.846-0.685,1.93-1.531,2.422c-0.846,0.492-1.531,0.206-1.531-0.64
				c0-0.846,0.685-1.93,1.531-2.422C176.56,157.384,177.245,157.67,177.245,158.516z"/>
			<path style="fill:#256372;" d="M139.889,184.596c0,0.846-0.685,1.93-1.531,2.422c-0.846,0.492-1.531,0.206-1.531-0.64
				s0.685-1.93,1.531-2.422C139.204,183.464,139.889,183.75,139.889,184.596z"/>
			<path style="fill:#256372;" d="M144.877,181.693c0,0.846-0.686,1.93-1.531,2.422c-0.845,0.492-1.531,0.205-1.531-0.64
				c0-0.846,0.685-1.93,1.531-2.422C144.191,180.561,144.877,180.848,144.877,181.693z"/>
			<path style="fill:#256372;" d="M149.864,178.79c0,0.846-0.685,1.93-1.531,2.422c-0.846,0.492-1.531,0.206-1.531-0.64
				c0-0.846,0.685-1.93,1.531-2.422C149.179,177.658,149.864,177.945,149.864,178.79z"/>
			<path style="fill:#256372;" d="M154.852,175.888c0,0.846-0.685,1.93-1.531,2.422c-0.846,0.492-1.531,0.206-1.531-0.64
				c0-0.845,0.685-1.93,1.531-2.422C154.166,174.756,154.852,175.042,154.852,175.888z"/>
			<path style="fill:#256372;" d="M159.839,172.985c0,0.846-0.685,1.93-1.531,2.422c-0.845,0.492-1.531,0.206-1.531-0.64
				c0-0.846,0.685-1.93,1.531-2.422C159.154,171.853,159.839,172.14,159.839,172.985z"/>
			<path style="fill:#256372;" d="M164.826,170.083c0,0.845-0.685,1.93-1.531,2.422c-0.845,0.492-1.531,0.206-1.531-0.64
				c0-0.846,0.685-1.93,1.531-2.422C164.141,168.951,164.826,169.237,164.826,170.083z"/>
			<path style="fill:#256372;" d="M169.814,167.18c0,0.846-0.685,1.93-1.531,2.422c-0.845,0.492-1.531,0.206-1.531-0.64
				c0-0.846,0.685-1.93,1.531-2.422C169.128,166.048,169.814,166.334,169.814,167.18z"/>
			<path style="fill:#256372;" d="M174.801,164.277c0,0.845-0.685,1.93-1.531,2.422c-0.845,0.492-1.531,0.206-1.531-0.64
				c0-0.846,0.685-1.93,1.531-2.422C174.116,163.145,174.801,163.432,174.801,164.277z"/>
			<path style="fill:#256372;" d="M179.789,161.375c0,0.845-0.685,1.93-1.531,2.422c-0.846,0.492-1.531,0.206-1.531-0.64
				c0-0.845,0.685-1.93,1.531-2.422C179.104,160.243,179.789,160.529,179.789,161.375z"/>
			<path style="fill:#256372;" d="M137.345,190.415c0,0.845-0.685,1.93-1.531,2.422c-0.845,0.492-1.531,0.206-1.531-0.64
				s0.685-1.93,1.531-2.422C136.66,189.283,137.345,189.57,137.345,190.415z"/>
			<path style="fill:#256372;" d="M142.333,187.513c0,0.845-0.685,1.93-1.531,2.422c-0.845,0.492-1.531,0.206-1.531-0.64
				c0-0.845,0.686-1.93,1.531-2.422C141.647,186.381,142.333,186.667,142.333,187.513z"/>
			<path style="fill:#256372;" d="M147.32,184.61c0,0.846-0.685,1.93-1.531,2.422c-0.845,0.492-1.531,0.206-1.531-0.64
				c0-0.845,0.685-1.93,1.531-2.422C146.635,183.478,147.32,183.764,147.32,184.61z"/>
			<path style="fill:#256372;" d="M152.308,181.707c0,0.845-0.685,1.93-1.531,2.422c-0.845,0.492-1.531,0.206-1.531-0.64
				c0-0.845,0.685-1.93,1.531-2.422C151.622,180.575,152.308,180.862,152.308,181.707z"/>
			<path style="fill:#256372;" d="M157.295,178.805c0,0.846-0.685,1.93-1.531,2.422s-1.531,0.206-1.531-0.64
				c0-0.845,0.685-1.93,1.531-2.422S157.295,177.959,157.295,178.805z"/>
			<path style="fill:#256372;" d="M162.283,175.902c0,0.846-0.685,1.93-1.531,2.422c-0.845,0.492-1.531,0.206-1.531-0.64
				s0.685-1.93,1.531-2.422C161.597,174.77,162.283,175.057,162.283,175.902z"/>
			<path style="fill:#256372;" d="M167.27,172.999c0,0.846-0.685,1.93-1.531,2.422c-0.846,0.492-1.531,0.206-1.531-0.64
				c0-0.845,0.685-1.93,1.531-2.422C166.585,171.867,167.27,172.154,167.27,172.999z"/>
			<path style="fill:#256372;" d="M172.258,170.097c0,0.846-0.685,1.93-1.531,2.422c-0.846,0.492-1.531,0.206-1.531-0.64
				s0.685-1.93,1.531-2.422C171.572,168.965,172.258,169.251,172.258,170.097z"/>
			<path style="fill:#256372;" d="M177.245,167.194c0,0.846-0.685,1.93-1.531,2.422c-0.846,0.492-1.531,0.206-1.531-0.64
				s0.685-1.93,1.531-2.422C176.56,166.062,177.245,166.349,177.245,167.194z"/>
		</g>
		<polygon style="fill:#256372;" points="72.501,158.772 100.413,174.904 100.413,181.34 72.501,165.224 		"/>
		<polygon style="fill:#256372;" points="72.501,167.423 100.413,183.555 100.413,186.813 72.501,170.697 		"/>
		<polygon style="fill:#256372;" points="92.421,222.251 100.413,226.843 100.413,230.101 92.42,225.525 		"/>
		<polygon style="fill:#256372;" points="82.946,216.776 90.938,221.368 90.938,224.626 82.946,220.05 		"/>
		<polygon style="fill:#7DD8C7;" points="72.501,216.41 100.413,232.542 100.413,235.801 72.501,219.684 		"/>
		<g>
			<path style="fill:#7DD8C7;" d="M91.874,191.997c0,2.992-2.425,4.579-5.417,3.546c-2.992-1.034-5.417-4.297-5.417-7.288
				c0-2.992,2.425-4.579,5.417-3.546C89.449,185.742,91.874,189.005,91.874,191.997z"/>
			<path style="fill:none;stroke:#256372;stroke-width:0.9935;stroke-linecap:round;stroke-miterlimit:10;" d="M84.193,187.529
				c-0.399,0.359-0.639,0.907-0.639,1.594c0,1.603,1.3,3.352,2.903,3.906c1.603,0.554,2.903-0.297,2.903-1.9
				c0-0.687-0.24-1.4-0.639-2.035"/>
			
				<line style="fill:none;stroke:#256372;stroke-width:0.9935;stroke-linecap:round;stroke-miterlimit:10;" x1="86.457" y1="186.778" x2="86.457" y2="190.125"/>
		</g>
		<g>
			
				<line style="fill:none;stroke:#509AAF;stroke-width:1.2359;stroke-linecap:round;stroke-miterlimit:10;" x1="151.779" y1="108.991" x2="139.853" y2="115.847"/>
			
				<line style="fill:none;stroke:#509AAF;stroke-width:1.2359;stroke-linecap:round;stroke-miterlimit:10;" x1="149.5" y1="107.696" x2="137.574" y2="114.552"/>
			
				<line style="fill:none;stroke:#509AAF;stroke-width:1.2359;stroke-linecap:round;stroke-miterlimit:10;" x1="156.377" y1="111.699" x2="144.451" y2="118.555"/>
			
				<line style="fill:none;stroke:#509AAF;stroke-width:1.2359;stroke-linecap:round;stroke-miterlimit:10;" x1="154.098" y1="110.404" x2="142.172" y2="117.26"/>
			
				<line style="fill:none;stroke:#509AAF;stroke-width:1.2359;stroke-linecap:round;stroke-miterlimit:10;" x1="160.964" y1="114.292" x2="149.038" y2="121.148"/>
			
				<line style="fill:none;stroke:#509AAF;stroke-width:1.2359;stroke-linecap:round;stroke-miterlimit:10;" x1="158.685" y1="112.997" x2="146.759" y2="119.853"/>
			
				<line style="fill:none;stroke:#509AAF;stroke-width:1.2359;stroke-linecap:round;stroke-miterlimit:10;" x1="165.562" y1="117" x2="153.636" y2="123.856"/>
			
				<line style="fill:none;stroke:#509AAF;stroke-width:1.2359;stroke-linecap:round;stroke-miterlimit:10;" x1="163.283" y1="115.705" x2="151.357" y2="122.561"/>
		</g>
	</g>
	<g>
		<path style="opacity:0.14;" d="M275.538,252.384c-1.732-0.948-1.598-2.605,0.299-3.701l-36.454-19.855l-81.075,46.88
			l36.454,19.855c1.896-1.097,4.838-1.217,6.569-0.27c0.833,0.456,1.234,1.075,1.215,1.718c-0.02,0.694-0.529,1.414-1.514,1.984
			l32.562,17.753l82.427-47.662l-5.736-3.319C301.082,261.692,276.952,253.158,275.538,252.384z"/>
		<rect x="270.187" y="243.609" style="fill:#509AAF;" width="2.344" height="4.176"/>
		<path style="fill:#509AAF;" d="M310.286,264.27c0,0-36.407-11.399-38.036-12.29c-1.628-0.891-1.503-2.45,0.281-3.481
			l-31.858-17.434l-76.244,39.197v4.89l31.858,17.434c1.784-1.031,4.55-1.145,6.178-0.254c0.783,0.428,1.16,1.011,1.143,1.615
			c-0.019,0.652-0.498,1.33-1.424,1.866l31.858,17.434l76.244-44.087V264.27z"/>
		<path style="fill:#35808C;" d="M196.286,287.696v4.89c1.342-0.619,1.786-0.786,4.163-0.786c0.977,0,3.159,0.714,3.159,2.148
			v-7.201h-6.124L196.286,287.696z"/>
		<path style="fill:#428EA0;" d="M278.428,246.837c-1.784,1.031-4.549,1.145-6.178,0.254c-1.628-0.891-1.503-2.45,0.281-3.481
			l-31.858-17.434l-76.244,44.087l31.858,17.434c1.784-1.031,4.55-1.145,6.178-0.254c1.628,0.891,1.503,2.45-0.281,3.481
			l31.858,17.434l76.244-44.087L278.428,246.837z"/>
		<path style="fill:#509AAF;" d="M226.627,297.463l-42.636-23.332c-4.386-2.4-4.048-6.598,0.757-9.376l46.698-27.002
			c4.804-2.778,12.255-3.084,16.642-0.684l42.636,23.332c4.386,2.4,4.048,6.598-0.757,9.376l-46.698,27.002
			C238.464,299.558,231.014,299.864,226.627,297.463z"/>
		<path style="fill:#7DD8C7;" d="M227.868,293.97l-37.704-20.633c-3.879-2.123-3.579-5.835,0.669-8.292l41.296-23.879
			c4.249-2.457,10.837-2.727,14.716-0.605l37.704,20.633c3.879,2.123,3.58,5.835-0.669,8.292l-41.296,23.879
			C238.336,295.823,231.747,296.093,227.868,293.97z"/>
		<polygon style="fill:#7DD8C7;" points="257.116,286.747 202.195,256.693 217.599,247.786 272.52,277.84 		"/>
		<path style="fill:#7DD8C7;" d="M242.184,231.987c-1.017,0.588-2.594,0.653-3.522,0.145c-0.928-0.508-0.857-1.396,0.16-1.985
			c1.017-0.588,2.594-0.653,3.522-0.145C243.272,230.51,243.201,231.399,242.184,231.987z"/>
		<path style="fill:#7DD8C7;" d="M303.28,265.42c-1.017,0.588-2.594,0.653-3.522,0.145c-0.928-0.508-0.857-1.397,0.16-1.984
			c1.017-0.588,2.594-0.653,3.522-0.145C304.368,263.944,304.296,264.832,303.28,265.42z"/>
		<path style="fill:#7DD8C7;" d="M174.797,270.952c-1.017,0.588-2.594,0.653-3.522,0.145c-0.928-0.508-0.857-1.396,0.16-1.984
			c1.017-0.588,2.594-0.653,3.522-0.145C175.885,269.476,175.813,270.364,174.797,270.952z"/>
		<path style="fill:#7DD8C7;" d="M235.892,304.386c-1.017,0.588-2.594,0.653-3.522,0.145c-0.928-0.508-0.857-1.397,0.16-1.984
			c1.017-0.588,2.594-0.653,3.522-0.145C236.981,302.909,236.909,303.798,235.892,304.386z"/>
		
			<text transform="matrix(0.7904 0.4325 -0.8657 0.5006 210.9126 263.5452)" style="fill:#FFFFFF; font-family:'Antonio-Bold'; font-size:29.8584px;">CPU</text>
		<polygon style="fill:#509AAF;" points="202.184,290.923 202.184,295.813 203.775,296.684 203.775,291.794 		"/>
		
			<linearGradient id="SVGID_00000055681743623833461930000005593798911678000794_" gradientUnits="userSpaceOnUse" x1="234.0413" y1="267.2664" x2="310.2857" y2="267.2664">
			<stop  offset="0" style="stop-color:#FFFFFF;stop-opacity:0.3"/>
			<stop  offset="1" style="stop-color:#FFFFFF;stop-opacity:0"/>
		</linearGradient>
		<polygon style="fill:url(#SVGID_00000055681743623833461930000005593798911678000794_);" points="240.673,226.176 
			234.041,308.357 310.286,264.27 		"/>
	</g>
	<g>
		<path style="opacity:0.14;" d="M373.464,291.428l-97.267,56.243l90.324,49.236l98.889-57.181l-6.882-3.982
			C447.485,330.856,373.464,291.428,373.464,291.428z"/>
		<path style="fill:#509AAF;" d="M458.528,333.949c0,0-43.679-13.675-45.632-14.744c-1.954-1.069-1.803-2.939,0.337-4.176
			l-38.221-20.915l-91.472,47.025v5.867l83.516,45.702l91.472-52.892V333.949z"/>
		<polygon style="fill:#428EA0;" points="375.012,288.246 283.539,341.138 367.055,386.841 458.528,333.949 		"/>
		<path style="fill:#509AAF;" d="M358.161,373.772l-51.152-27.992c-5.263-2.88-4.856-7.916,0.908-11.249l56.025-32.395
			c5.764-3.333,14.703-3.7,19.965-0.82l51.152,27.992c5.263,2.88,4.856,7.916-0.908,11.249l-56.025,32.395
			C372.362,376.284,363.423,376.652,358.161,373.772z"/>
		<path style="fill:#7DD8C7;" d="M376.824,295.218c-1.22,0.705-3.112,0.783-4.226,0.174s-1.028-1.676,0.192-2.381
			c1.22-0.705,3.112-0.783,4.225-0.174S378.044,294.513,376.824,295.218z"/>
		<path style="fill:#7DD8C7;" d="M450.122,335.329c-1.22,0.705-3.112,0.783-4.226,0.174c-1.114-0.609-1.028-1.676,0.192-2.381
			c1.22-0.705,3.112-0.783,4.225-0.174S451.342,334.624,450.122,335.329z"/>
		<path style="fill:#7DD8C7;" d="M295.978,341.966c-1.22,0.705-3.112,0.783-4.225,0.174s-1.028-1.675,0.192-2.381
			c1.22-0.705,3.112-0.783,4.225-0.174C297.284,340.194,297.198,341.26,295.978,341.966z"/>
		<path style="fill:#7DD8C7;" d="M369.276,382.077c-1.22,0.705-3.112,0.783-4.225,0.174s-1.028-1.675,0.192-2.381
			c1.22-0.705,3.112-0.783,4.226-0.174S370.496,381.371,369.276,382.077z"/>
		<polygon style="fill:#509AAF;" points="328.835,365.925 328.835,371.792 330.744,372.837 330.744,366.97 		"/>
		
			<linearGradient id="SVGID_00000065788025026975402560000006289883901980699814_" gradientUnits="userSpaceOnUse" x1="367.0555" y1="337.5436" x2="458.5277" y2="337.5436">
			<stop  offset="0" style="stop-color:#FFFFFF;stop-opacity:0.3"/>
			<stop  offset="1" style="stop-color:#FFFFFF;stop-opacity:0"/>
		</linearGradient>
		<polygon style="fill:url(#SVGID_00000065788025026975402560000006289883901980699814_);" points="375.012,288.246 
			367.055,386.841 458.528,333.949 		"/>
		<g>
			
				<ellipse transform="matrix(0.9848 -0.1738 0.1738 0.9848 -52.8094 69.5946)" style="fill:#7DD8C7;" cx="371.034" cy="336.379" rx="40.174" ry="26.85"/>
			<path style="fill:#509AAF;" d="M368.778,332.549c0,0,5.474-9.453,2.453-19.088c-0.087-0.279-0.197-1.355,0.071-1.645
				c0,0,10.205-0.906,18.46,1.919c0,0,0.175,1.08-0.024,1.527c-0.898,2.014-5.652,11.686-14.058,17.708
				C375.817,333.055,368.778,332.549,368.778,332.549z"/>
			<path style="fill:#509AAF;" d="M373.292,340.206c0,0-5.454,8.775-2.441,17.912c0.056,0.169-0.012,1.176-0.012,1.176
				c-0.036,0.385-0.208,0.583-0.639,0.643c-2.312,0.317-9.321,0.912-17.576-1.913c-0.271-0.093-0.327-0.301-0.327-0.541
				c0-0.175,0.01-1.069,0.01-1.069c1.246-2.628,6.113-10.919,14.083-16.629C366.253,339.699,373.292,340.206,373.292,340.206z"/>
			<path style="fill:#509AAF;" d="M364.696,336.585c0,0-9.337-7.5-23.825-7.5c-0.661,0-0.537-1.681-0.537-1.681
				c1.169-1.832,4.787-5.337,12.551-9.261c0.277-0.14,0.635-0.147,0.866-0.016c2.128,1.199,12.231,7.176,15.418,14.294
				C369.359,332.361,364.696,336.585,364.696,336.585z"/>
			<path style="fill:#509AAF;" d="M377.373,336.17c0,0,9.921,5.456,24.364,6.59c0,0,0.113,1.223-0.053,1.509
				c-0.893,1.538-4.083,6.088-12.5,10.343c-0.277,0.14-0.635,0.147-0.866,0.016c-2.128-1.199-12.231-7.176-15.418-14.294
				C372.71,340.394,377.373,336.17,377.373,336.17z"/>
			<path style="fill:#509AAF;" d="M367.051,340.138c0,0-14.093,2.684-25.14,10.557c-0.32,0.228-0.82,0.243-1.061,0.023
				c-1.293-1.181-4.751-4.993-4.353-11.703c0.013-0.221,0.244-0.431,0.559-0.509c2.895-0.714,16.991-3.984,27.867-2.756
				C364.979,335.615,367.051,340.138,367.051,340.138z"/>
			<path style="fill:#509AAF;" d="M375.016,332.619c0,0,14.093-2.684,25.14-10.557c0.32-0.228,0.82-0.243,1.061-0.023
				c1.293,1.181,4.751,4.993,4.354,11.703c-0.013,0.221-0.244,0.431-0.559,0.509c-2.895,0.714-16.991,3.984-27.867,2.756
				C377.089,337.143,375.016,332.619,375.016,332.619z"/>
			<path style="fill:#509AAF;" d="M376.552,338.017c-1.763,2.241-5.662,3.325-8.71,2.421c-3.048-0.904-4.09-3.455-2.327-5.696
				c1.763-2.241,5.662-3.325,8.71-2.421C377.273,333.225,378.315,335.775,376.552,338.017z"/>
			<path style="fill:#428EA0;" d="M368.778,331.243c0,0,5.474-9.453,2.453-19.088c-0.087-0.279,0.208-0.583,0.639-0.642
				c2.312-0.317,9.321-0.912,17.576,1.913c0.271,0.093,0.392,0.312,0.292,0.53c-0.918,2.005-5.652,11.686-14.058,17.708
				C375.817,331.75,368.778,331.243,368.778,331.243z"/>
			<path style="fill:#428EA0;" d="M373.292,338.901c0,0-5.474,9.453-2.453,19.088c0.087,0.279-0.208,0.583-0.639,0.643
				c-2.312,0.317-9.321,0.912-17.576-1.913c-0.271-0.093-0.392-0.312-0.292-0.53c0.918-2.005,5.652-11.686,14.058-17.708
				C366.253,338.394,373.292,338.901,373.292,338.901z"/>
			<path style="fill:#428EA0;" d="M364.696,335.279c0,0-9.382-6.366-23.825-7.5c-0.418-0.033-0.653-0.312-0.486-0.599
				c0.893-1.538,4.083-6.088,12.5-10.343c0.277-0.14,0.635-0.147,0.866-0.016c2.128,1.199,12.231,7.176,15.418,14.294
				C369.359,331.055,364.696,335.279,364.696,335.279z"/>
			<path style="fill:#428EA0;" d="M377.373,334.865c0,0,9.382,6.366,23.825,7.5c0.418,0.033,0.653,0.312,0.486,0.599
				c-0.893,1.538-4.083,6.088-12.5,10.343c-0.277,0.14-0.635,0.147-0.866,0.016c-2.128-1.199-12.231-7.176-15.418-14.294
				C372.71,339.089,377.373,334.865,377.373,334.865z"/>
			<path style="fill:#428EA0;" d="M367.051,338.833c0,0-14.093,2.684-25.14,10.557c-0.32,0.228-0.82,0.243-1.061,0.023
				c-1.293-1.181-4.751-4.993-4.353-11.703c0.013-0.221,0.244-0.431,0.559-0.509c2.895-0.714,16.991-3.984,27.867-2.756
				C364.979,334.31,367.051,338.833,367.051,338.833z"/>
			<path style="fill:#428EA0;" d="M375.016,331.314c0,0,14.093-2.684,25.14-10.557c0.32-0.228,0.82-0.243,1.061-0.023
				c1.293,1.181,4.751,4.993,4.354,11.703c-0.013,0.221-0.244,0.431-0.559,0.509c-2.895,0.714-16.991,3.984-27.867,2.756
				C377.089,335.837,375.016,331.314,375.016,331.314z"/>
			<path style="fill:#509AAF;" d="M376.552,336.711c-1.763,2.241-5.662,3.325-8.71,2.421c-3.048-0.905-4.09-3.455-2.327-5.696
				c1.763-2.241,5.662-3.325,8.71-2.421C377.273,331.92,378.315,334.47,376.552,336.711z"/>
		</g>
	</g>
	<g>
		<path style="opacity:0.14;" d="M365.768,173.196l-57.38,33.179l53.284,29.046l58.337-33.732l-4.06-2.349
			C409.436,196.455,365.768,173.196,365.768,173.196z"/>
		<polygon style="fill:#509AAF;" points="412.489,192.48 316.162,196.438 316.162,205.87 362.136,231.028 412.489,201.912 		"/>
		<polygon style="fill:#7DD8C7;" points="366.516,167.322 316.162,196.438 362.136,221.596 412.489,192.48 		"/>
		<polygon style="fill:#509AAF;" points="341.096,216.285 341.096,219.515 342.148,220.09 342.148,216.86 		"/>
		<polygon style="fill:#428EA0;" points="362.136,221.596 362.136,231.028 412.489,201.912 412.489,192.48 		"/>
		<g>
			<polygon style="fill:#71CCBA;" points="412.661,202.096 405.661,202.384 405.661,205.852 409.002,207.68 412.661,205.564 			"/>
			<polygon style="fill:#7DD8C7;" points="409.32,200.268 405.661,202.384 409.002,204.212 412.661,202.096 			"/>
			<polygon style="fill:#7DD8C7;" points="411.891,206.009 409.757,207.24 413.098,209.068 415.231,207.837 			"/>
			<polygon style="fill:#4DC1AB;" points="409.002,204.212 409.002,207.68 412.661,205.564 412.661,202.096 			"/>
		</g>
		<g>
			<polygon style="fill:#71CCBA;" points="406.174,205.85 399.174,206.137 399.174,209.605 402.514,211.434 406.174,209.318 			"/>
			<polygon style="fill:#7DD8C7;" points="402.833,204.022 399.174,206.137 402.514,207.966 406.174,205.85 			"/>
			<polygon style="fill:#7DD8C7;" points="405.403,209.762 403.27,210.993 406.611,212.822 408.744,211.591 			"/>
			<polygon style="fill:#4DC1AB;" points="402.514,207.966 402.514,211.434 406.174,209.318 406.174,205.85 			"/>
		</g>
		<g>
			<polygon style="fill:#71CCBA;" points="399.686,209.604 392.686,209.891 392.686,213.359 396.027,215.187 399.686,213.072 			"/>
			<polygon style="fill:#7DD8C7;" points="396.345,207.775 392.686,209.891 396.027,211.719 399.686,209.604 			"/>
			<polygon style="fill:#7DD8C7;" points="398.916,213.516 396.783,214.747 400.124,216.575 402.257,215.344 			"/>
			<polygon style="fill:#4DC1AB;" points="396.027,211.719 396.027,215.187 399.686,213.072 399.686,209.604 			"/>
		</g>
		<g>
			<polygon style="fill:#71CCBA;" points="393.199,213.357 386.199,213.645 386.199,217.113 389.54,218.941 393.199,216.825 			"/>
			<polygon style="fill:#7DD8C7;" points="389.858,211.529 386.199,213.645 389.54,215.473 393.199,213.357 			"/>
			<polygon style="fill:#7DD8C7;" points="392.429,217.27 390.296,218.501 393.636,220.329 395.77,219.098 			"/>
			<polygon style="fill:#4DC1AB;" points="389.54,215.473 389.54,218.941 393.199,216.825 393.199,213.357 			"/>
		</g>
		<g>
			<polygon style="fill:#71CCBA;" points="386.712,217.111 379.712,217.399 379.712,220.867 383.053,222.695 386.712,220.579 			"/>
			<polygon style="fill:#7DD8C7;" points="383.371,215.283 379.712,217.399 383.053,219.227 386.712,217.111 			"/>
			<polygon style="fill:#7DD8C7;" points="385.942,221.024 383.808,222.255 387.149,224.083 389.283,222.852 			"/>
			<polygon style="fill:#4DC1AB;" points="383.053,219.227 383.053,222.695 386.712,220.579 386.712,217.111 			"/>
		</g>
		<g>
			<polygon style="fill:#71CCBA;" points="380.225,220.865 373.225,221.152 373.225,224.62 376.566,226.449 380.225,224.333 			"/>
			<polygon style="fill:#7DD8C7;" points="376.884,219.037 373.225,221.152 376.566,222.981 380.225,220.865 			"/>
			<polygon style="fill:#7DD8C7;" points="379.454,224.777 377.321,226.008 380.662,227.836 382.795,226.606 			"/>
			<polygon style="fill:#4DC1AB;" points="376.566,222.981 376.566,226.449 380.225,224.333 380.225,220.865 			"/>
		</g>
		<g>
			<polygon style="fill:#71CCBA;" points="373.737,224.619 366.737,224.906 366.737,228.374 370.078,230.202 373.737,228.087 			"/>
			<polygon style="fill:#7DD8C7;" points="370.397,222.79 366.737,224.906 370.078,226.734 373.737,224.619 			"/>
			<polygon style="fill:#7DD8C7;" points="372.967,228.531 370.834,229.762 374.175,231.59 376.308,230.359 			"/>
			<polygon style="fill:#4DC1AB;" points="370.078,226.734 370.078,230.202 373.737,228.087 373.737,224.619 			"/>
		</g>
		<g>
			<polygon style="fill:#71CCBA;" points="317.85,205.85 324.85,206.137 324.85,209.605 321.509,211.434 317.85,209.318 			"/>
			<polygon style="fill:#7DD8C7;" points="321.191,204.022 324.85,206.137 321.509,207.966 317.85,205.85 			"/>
			<polygon style="fill:#7DD8C7;" points="318.62,209.762 320.754,210.993 317.413,212.822 315.279,211.591 			"/>
			<polygon style="fill:#4DC1AB;" points="321.509,207.966 321.509,211.434 317.85,209.318 317.85,205.85 			"/>
		</g>
		<g>
			<polygon style="fill:#71CCBA;" points="324.337,209.604 331.337,209.891 331.337,213.359 327.996,215.187 324.337,213.072 			"/>
			<polygon style="fill:#7DD8C7;" points="327.678,207.775 331.337,209.891 327.996,211.719 324.337,209.604 			"/>
			<polygon style="fill:#7DD8C7;" points="325.107,213.516 327.241,214.747 323.9,216.575 321.767,215.344 			"/>
			<polygon style="fill:#4DC1AB;" points="327.996,211.719 327.996,215.187 324.337,213.072 324.337,209.604 			"/>
		</g>
		<g>
			<polygon style="fill:#71CCBA;" points="330.824,213.357 337.824,213.645 337.824,217.113 334.484,218.941 330.824,216.825 			"/>
			<polygon style="fill:#7DD8C7;" points="334.165,211.529 337.824,213.645 334.484,215.473 330.824,213.357 			"/>
			<polygon style="fill:#7DD8C7;" points="331.595,217.27 333.728,218.501 330.387,220.329 328.254,219.098 			"/>
			<polygon style="fill:#4DC1AB;" points="334.484,215.473 334.484,218.941 330.824,216.825 330.824,213.357 			"/>
		</g>
		<g>
			<polygon style="fill:#71CCBA;" points="337.312,217.111 344.312,217.399 344.312,220.867 340.971,222.695 337.312,220.579 			"/>
			<polygon style="fill:#7DD8C7;" points="340.652,215.283 344.312,217.399 340.971,219.227 337.312,217.111 			"/>
			<polygon style="fill:#7DD8C7;" points="338.082,221.024 340.215,222.255 336.874,224.083 334.741,222.852 			"/>
			<polygon style="fill:#4DC1AB;" points="340.971,219.227 340.971,222.695 337.312,220.579 337.312,217.111 			"/>
		</g>
		<g>
			<polygon style="fill:#71CCBA;" points="343.799,220.865 350.799,221.152 350.799,224.62 347.458,226.449 343.799,224.333 			"/>
			<polygon style="fill:#7DD8C7;" points="347.14,219.037 350.799,221.152 347.458,222.981 343.799,220.865 			"/>
			<polygon style="fill:#7DD8C7;" points="344.569,224.777 346.703,226.008 343.362,227.836 341.228,226.606 			"/>
			<polygon style="fill:#4DC1AB;" points="347.458,222.981 347.458,226.449 343.799,224.333 343.799,220.865 			"/>
		</g>
		<g>
			<polygon style="fill:#71CCBA;" points="350.286,224.619 357.286,224.906 357.286,228.374 353.945,230.202 350.286,228.087 			"/>
			<polygon style="fill:#7DD8C7;" points="353.627,222.79 357.286,224.906 353.945,226.734 350.286,224.619 			"/>
			<polygon style="fill:#7DD8C7;" points="351.056,228.531 353.19,229.762 349.849,231.59 347.715,230.359 			"/>
			<polygon style="fill:#4DC1AB;" points="353.945,226.734 353.945,230.202 350.286,228.087 350.286,224.619 			"/>
		</g>
		
			<linearGradient id="SVGID_00000019660674333626167250000000917123742812073377_" gradientUnits="userSpaceOnUse" x1="362.1361" y1="194.4592" x2="412.4894" y2="194.4592">
			<stop  offset="0" style="stop-color:#FFFFFF;stop-opacity:0.3"/>
			<stop  offset="1" style="stop-color:#FFFFFF;stop-opacity:0"/>
		</linearGradient>
		<polygon style="fill:url(#SVGID_00000019660674333626167250000000917123742812073377_);" points="366.516,167.322 
			362.136,221.596 412.489,192.48 		"/>
	</g>
	<g>
		<path style="opacity:0.14;" d="M271.849,408.158L98.116,307.922c-0.528-0.305-1.178-0.304-1.706,0.001l-36.83,21.286
			c-0.604,0.349-0.604,1.221,0,1.57l173.49,100.135c0.527,0.304,1.177,0.305,1.705,0l37.074-21.371
			C272.383,409.236,272.383,408.466,271.849,408.158z"/>
		<path style="fill:#428EA0;" d="M271.183,405.556l-171.38-98.073c-0.52-0.3-1.16-0.3-1.679,0.001l-36.686,20.35
			c0,0-0.156,1.802,0.439,2.145l170.747,98.552c0.519,0.3,1.159,0.3,1.678,0l36.488-21.033
			C271.316,407.195,271.183,405.556,271.183,405.556z M67.815,328.972c-0.502,0.765-1.674,1.323-2.619,1.246
			c-0.944-0.077-1.303-0.759-0.801-1.523c0.502-0.765,1.674-1.322,2.619-1.246C67.958,327.526,68.317,328.208,67.815,328.972z
			 M100.337,310.362c-0.502,0.765-1.674,1.323-2.619,1.246c-0.944-0.077-1.303-0.759-0.801-1.523
			c0.502-0.765,1.674-1.323,2.619-1.246C100.48,308.915,100.839,309.597,100.337,310.362z M235.882,425.763
			c-0.502,0.765-1.674,1.322-2.619,1.246c-0.944-0.077-1.303-0.759-0.801-1.523c0.502-0.765,1.674-1.323,2.619-1.246
			C236.026,424.316,236.384,424.999,235.882,425.763z M268.404,407.153c-0.502,0.765-1.674,1.323-2.619,1.246
			c-0.944-0.077-1.303-0.759-0.801-1.523c0.502-0.765,1.674-1.323,2.619-1.246C268.547,405.706,268.906,406.388,268.404,407.153z"/>
		<path style="fill:#509AAF;" d="M270.79,404.863L99.804,306.212c-0.52-0.3-1.16-0.3-1.679,0.001l-36.247,20.95
			c-0.594,0.344-0.594,1.202,0,1.545l170.747,98.552c0.519,0.3,1.159,0.3,1.678,0.001l36.488-21.033
			C271.316,405.924,271.316,405.166,270.79,404.863z M67.815,327.701c-0.502,0.765-1.674,1.323-2.619,1.246
			c-0.944-0.077-1.303-0.759-0.801-1.523c0.502-0.765,1.674-1.323,2.619-1.246C67.958,326.254,68.317,326.936,67.815,327.701z
			 M100.337,309.091c-0.502,0.765-1.674,1.323-2.619,1.246c-0.944-0.077-1.303-0.759-0.801-1.523
			c0.502-0.765,1.674-1.323,2.619-1.246C100.48,307.644,100.839,308.326,100.337,309.091z M235.882,424.492
			c-0.502,0.765-1.674,1.323-2.619,1.246c-0.944-0.077-1.303-0.759-0.801-1.523c0.502-0.765,1.674-1.323,2.619-1.246
			C236.026,423.045,236.384,423.728,235.882,424.492z M268.404,405.882c-0.502,0.765-1.674,1.323-2.619,1.246
			c-0.944-0.077-1.303-0.759-0.801-1.523c0.502-0.765,1.674-1.323,2.619-1.246C268.547,404.435,268.906,405.117,268.404,405.882z"/>
		<g>
			<g>
				<polygon style="fill:#7DD8C7;" points="85.452,322.319 93.838,327.153 113.383,315.866 105.006,311.034 				"/>
				<polygon style="fill:#256372;" points="85.452,322.319 93.838,327.153 93.838,330.491 85.452,325.658 				"/>
				<polygon style="fill:#428EA0;" points="93.838,327.153 113.383,315.866 113.383,319.204 93.838,330.491 				"/>
			</g>
			<g>
				<polygon style="fill:#7DD8C7;" points="84.237,331.792 87.026,333.399 90.484,331.402 87.698,329.795 				"/>
				<polygon style="fill:#256372;" points="84.237,331.792 87.026,333.399 87.026,334.509 84.237,332.902 				"/>
				<polygon style="fill:#428EA0;" points="87.026,333.399 90.484,331.402 90.484,332.512 87.026,334.509 				"/>
			</g>
			<g>
				<polygon style="fill:#7DD8C7;" points="79.593,329.124 82.382,330.731 85.84,328.734 83.054,327.127 				"/>
				<polygon style="fill:#256372;" points="79.593,329.124 82.382,330.731 82.382,331.841 79.593,330.234 				"/>
				<polygon style="fill:#428EA0;" points="82.382,330.731 85.84,328.734 85.84,329.844 82.382,331.841 				"/>
			</g>
		</g>
		<g>
			<g>
				<polygon style="fill:#7DD8C7;" points="97.435,329.27 105.821,334.103 125.367,322.817 116.989,317.985 				"/>
				<polygon style="fill:#256372;" points="97.435,329.27 105.821,334.103 105.821,337.441 97.435,332.608 				"/>
				<polygon style="fill:#428EA0;" points="105.821,334.103 125.367,322.817 125.367,326.155 105.821,337.441 				"/>
			</g>
			<g>
				<polygon style="fill:#7DD8C7;" points="96.221,338.742 99.01,340.35 102.467,338.352 99.681,336.745 				"/>
				<polygon style="fill:#256372;" points="96.221,338.742 99.01,340.35 99.01,341.46 96.221,339.852 				"/>
				<polygon style="fill:#428EA0;" points="99.01,340.35 102.467,338.352 102.467,339.462 99.01,341.46 				"/>
			</g>
			<g>
				<polygon style="fill:#7DD8C7;" points="91.576,336.074 94.365,337.682 97.823,335.685 95.037,334.078 				"/>
				<polygon style="fill:#256372;" points="91.576,336.074 94.365,337.682 94.365,338.792 91.576,337.185 				"/>
				<polygon style="fill:#428EA0;" points="94.365,337.682 97.823,335.685 97.823,336.795 94.365,338.792 				"/>
			</g>
		</g>
		<g>
			<g>
				<polygon style="fill:#7DD8C7;" points="109.564,336.272 117.95,341.105 137.495,329.819 129.117,324.987 				"/>
				<polygon style="fill:#256372;" points="109.564,336.272 117.95,341.105 117.95,344.444 109.564,339.61 				"/>
				<polygon style="fill:#428EA0;" points="117.95,341.105 137.495,329.819 137.495,333.157 117.95,344.444 				"/>
			</g>
			<g>
				<polygon style="fill:#7DD8C7;" points="108.349,345.744 111.138,347.352 114.596,345.354 111.809,343.747 				"/>
				<polygon style="fill:#256372;" points="108.349,345.744 111.138,347.352 111.138,348.462 108.349,346.855 				"/>
				<polygon style="fill:#428EA0;" points="111.138,347.352 114.596,345.354 114.596,346.465 111.138,348.462 				"/>
			</g>
			<g>
				<polygon style="fill:#7DD8C7;" points="103.705,343.077 106.494,344.684 109.952,342.687 107.165,341.08 				"/>
				<polygon style="fill:#256372;" points="103.705,343.077 106.494,344.684 106.494,345.794 103.705,344.187 				"/>
				<polygon style="fill:#428EA0;" points="106.494,344.684 109.952,342.687 109.952,343.797 106.494,345.794 				"/>
			</g>
		</g>
		<g>
			<g>
				<polygon style="fill:#7DD8C7;" points="121.56,343.223 129.946,348.056 149.492,336.77 141.114,331.938 				"/>
				<polygon style="fill:#256372;" points="121.56,343.223 129.946,348.056 129.946,351.394 121.56,346.561 				"/>
				<polygon style="fill:#428EA0;" points="129.946,348.056 149.492,336.77 149.492,340.108 129.946,351.394 				"/>
			</g>
			<g>
				<polygon style="fill:#7DD8C7;" points="120.346,352.695 123.135,354.302 126.592,352.305 123.806,350.698 				"/>
				<polygon style="fill:#256372;" points="120.346,352.695 123.135,354.302 123.135,355.413 120.346,353.805 				"/>
				<polygon style="fill:#428EA0;" points="123.135,354.302 126.592,352.305 126.592,353.415 123.135,355.413 				"/>
			</g>
			<g>
				<polygon style="fill:#7DD8C7;" points="115.701,350.027 118.49,351.635 121.948,349.637 119.162,348.03 				"/>
				<polygon style="fill:#256372;" points="115.701,350.027 118.49,351.635 118.49,352.745 115.701,351.138 				"/>
				<polygon style="fill:#428EA0;" points="118.49,351.635 121.948,349.637 121.948,350.748 118.49,352.745 				"/>
			</g>
		</g>
		<g>
			<g>
				<polygon style="fill:#7DD8C7;" points="133.689,350.225 142.075,355.058 161.62,343.772 153.242,338.94 				"/>
				<polygon style="fill:#256372;" points="133.689,350.225 142.075,355.058 142.075,358.397 133.689,353.563 				"/>
				<polygon style="fill:#428EA0;" points="142.075,355.058 161.62,343.772 161.62,347.11 142.075,358.397 				"/>
			</g>
			<g>
				<polygon style="fill:#7DD8C7;" points="132.474,359.697 135.263,361.305 138.721,359.307 135.934,357.7 				"/>
				<polygon style="fill:#256372;" points="132.474,359.697 135.263,361.305 135.263,362.415 132.474,360.807 				"/>
				<polygon style="fill:#428EA0;" points="135.263,361.305 138.721,359.307 138.721,360.418 135.263,362.415 				"/>
			</g>
			<g>
				<polygon style="fill:#7DD8C7;" points="127.83,357.03 130.619,358.637 134.076,356.64 131.29,355.033 				"/>
				<polygon style="fill:#256372;" points="127.83,357.03 130.619,358.637 130.619,359.747 127.83,358.14 				"/>
				<polygon style="fill:#428EA0;" points="130.619,358.637 134.076,356.64 134.076,357.75 130.619,359.747 				"/>
			</g>
		</g>
		<g>
			<g>
				<polygon style="fill:#7DD8C7;" points="145.688,357.163 154.074,361.997 173.619,350.71 165.241,345.879 				"/>
				<polygon style="fill:#256372;" points="145.688,357.163 154.074,361.997 154.074,365.335 145.688,360.502 				"/>
				<polygon style="fill:#428EA0;" points="154.074,361.997 173.619,350.71 173.619,354.048 154.074,365.335 				"/>
			</g>
			<g>
				<polygon style="fill:#7DD8C7;" points="144.473,366.635 147.262,368.243 150.72,366.246 147.934,364.639 				"/>
				<polygon style="fill:#256372;" points="144.473,366.635 147.262,368.243 147.262,369.353 144.473,367.746 				"/>
				<polygon style="fill:#428EA0;" points="147.262,368.243 150.72,366.246 150.72,367.356 147.262,369.353 				"/>
			</g>
			<g>
				<polygon style="fill:#7DD8C7;" points="139.829,363.968 142.618,365.575 146.076,363.578 143.289,361.971 				"/>
				<polygon style="fill:#256372;" points="139.829,363.968 142.618,365.575 142.618,366.685 139.829,365.078 				"/>
				<polygon style="fill:#428EA0;" points="142.618,365.575 146.076,363.578 146.076,364.688 142.618,366.685 				"/>
			</g>
		</g>
		<g>
			<g>
				<polygon style="fill:#7DD8C7;" points="169.813,371.116 178.199,375.949 197.744,364.663 189.366,359.831 				"/>
				<polygon style="fill:#256372;" points="169.813,371.116 178.199,375.949 178.199,379.288 169.813,374.454 				"/>
				<polygon style="fill:#428EA0;" points="178.199,375.949 197.744,364.663 197.744,368.001 178.199,379.288 				"/>
			</g>
			<g>
				<polygon style="fill:#7DD8C7;" points="168.598,380.588 171.387,382.196 174.845,380.198 172.058,378.591 				"/>
				<polygon style="fill:#256372;" points="168.598,380.588 171.387,382.196 171.387,383.306 168.598,381.698 				"/>
				<polygon style="fill:#428EA0;" points="171.387,382.196 174.845,380.198 174.845,381.309 171.387,383.306 				"/>
			</g>
			<g>
				<polygon style="fill:#7DD8C7;" points="163.954,377.921 166.743,379.528 170.201,377.531 167.414,375.924 				"/>
				<polygon style="fill:#256372;" points="163.954,377.921 166.743,379.528 166.743,380.638 163.954,379.031 				"/>
				<polygon style="fill:#428EA0;" points="166.743,379.528 170.201,377.531 170.201,378.641 166.743,380.638 				"/>
			</g>
		</g>
		<g>
			<g>
				<polygon style="fill:#7DD8C7;" points="181.941,378.118 190.327,382.952 209.872,371.665 201.494,366.833 				"/>
				<polygon style="fill:#256372;" points="181.941,378.118 190.327,382.952 190.327,386.29 181.941,381.457 				"/>
				<polygon style="fill:#428EA0;" points="190.327,382.952 209.872,371.665 209.872,375.004 190.327,386.29 				"/>
			</g>
			<g>
				<polygon style="fill:#7DD8C7;" points="180.726,387.591 183.515,389.198 186.973,387.201 184.187,385.594 				"/>
				<polygon style="fill:#256372;" points="180.726,387.591 183.515,389.198 183.515,390.308 180.726,388.701 				"/>
				<polygon style="fill:#428EA0;" points="183.515,389.198 186.973,387.201 186.973,388.311 183.515,390.308 				"/>
			</g>
			<g>
				<polygon style="fill:#7DD8C7;" points="176.082,384.923 178.871,386.53 182.329,384.533 179.542,382.926 				"/>
				<polygon style="fill:#256372;" points="176.082,384.923 178.871,386.53 178.871,387.641 176.082,386.033 				"/>
				<polygon style="fill:#428EA0;" points="178.871,386.53 182.329,384.533 182.329,385.643 178.871,387.641 				"/>
			</g>
		</g>
		<g>
			<g>
				<polygon style="fill:#7DD8C7;" points="193.952,385.057 202.338,389.89 221.883,378.604 213.505,373.772 				"/>
				<polygon style="fill:#256372;" points="193.952,385.057 202.338,389.89 202.338,393.228 193.952,388.395 				"/>
				<polygon style="fill:#428EA0;" points="202.338,389.89 221.883,378.604 221.883,381.942 202.338,393.228 				"/>
			</g>
			<g>
				<polygon style="fill:#7DD8C7;" points="192.737,394.529 195.526,396.136 198.984,394.139 196.198,392.532 				"/>
				<polygon style="fill:#256372;" points="192.737,394.529 195.526,396.136 195.526,397.246 192.737,395.639 				"/>
				<polygon style="fill:#428EA0;" points="195.526,396.136 198.984,394.139 198.984,395.249 195.526,397.246 				"/>
			</g>
			<g>
				<polygon style="fill:#7DD8C7;" points="188.093,391.861 190.882,393.469 194.34,391.471 191.553,389.864 				"/>
				<polygon style="fill:#256372;" points="188.093,391.861 190.882,393.469 190.882,394.579 188.093,392.971 				"/>
				<polygon style="fill:#428EA0;" points="190.882,393.469 194.34,391.471 194.34,392.582 190.882,394.579 				"/>
			</g>
		</g>
		<g>
			<g>
				<polygon style="fill:#7DD8C7;" points="206.08,392.059 214.466,396.892 234.012,385.606 225.634,380.774 				"/>
				<polygon style="fill:#256372;" points="206.08,392.059 214.466,396.892 214.466,400.23 206.08,395.397 				"/>
				<polygon style="fill:#428EA0;" points="214.466,396.892 234.012,385.606 234.012,388.944 214.466,400.23 				"/>
			</g>
			<g>
				<polygon style="fill:#7DD8C7;" points="204.866,401.531 207.655,403.138 211.112,401.141 208.326,399.534 				"/>
				<polygon style="fill:#256372;" points="204.866,401.531 207.655,403.138 207.655,404.249 204.866,402.641 				"/>
				<polygon style="fill:#428EA0;" points="207.655,403.138 211.112,401.141 211.112,402.251 207.655,404.249 				"/>
			</g>
			<g>
				<polygon style="fill:#7DD8C7;" points="200.221,398.863 203.01,400.471 206.468,398.474 203.682,396.866 				"/>
				<polygon style="fill:#256372;" points="200.221,398.863 203.01,400.471 203.01,401.581 200.221,399.974 				"/>
				<polygon style="fill:#428EA0;" points="203.01,400.471 206.468,398.474 206.468,399.584 203.01,401.581 				"/>
			</g>
		</g>
		<g>
			<g>
				<polygon style="fill:#7DD8C7;" points="218.077,399.01 226.463,403.843 246.008,392.556 237.63,387.725 				"/>
				<polygon style="fill:#256372;" points="218.077,399.01 226.463,403.843 226.463,407.181 218.077,402.348 				"/>
				<polygon style="fill:#428EA0;" points="226.463,403.843 246.008,392.556 246.008,395.895 226.463,407.181 				"/>
			</g>
			<g>
				<polygon style="fill:#7DD8C7;" points="216.862,408.482 219.651,410.089 223.109,408.092 220.323,406.485 				"/>
				<polygon style="fill:#256372;" points="216.862,408.482 219.651,410.089 219.651,411.199 216.862,409.592 				"/>
				<polygon style="fill:#428EA0;" points="219.651,410.089 223.109,408.092 223.109,409.202 219.651,411.199 				"/>
			</g>
			<g>
				<polygon style="fill:#7DD8C7;" points="212.218,405.814 215.007,407.421 218.465,405.424 215.678,403.817 				"/>
				<polygon style="fill:#256372;" points="212.218,405.814 215.007,407.421 215.007,408.532 212.218,406.924 				"/>
				<polygon style="fill:#428EA0;" points="215.007,407.421 218.465,405.424 218.465,406.534 215.007,408.532 				"/>
			</g>
		</g>
		<g>
			<g>
				<polygon style="fill:#7DD8C7;" points="230.205,406.012 238.591,410.845 258.137,399.559 249.759,394.727 				"/>
				<polygon style="fill:#256372;" points="230.205,406.012 238.591,410.845 238.591,414.183 230.205,409.35 				"/>
				<polygon style="fill:#428EA0;" points="238.591,410.845 258.137,399.559 258.137,402.897 238.591,414.183 				"/>
			</g>
			<g>
				<polygon style="fill:#7DD8C7;" points="228.991,415.484 231.78,417.091 235.237,415.094 232.451,413.487 				"/>
				<polygon style="fill:#256372;" points="228.991,415.484 231.78,417.091 231.78,418.202 228.991,416.594 				"/>
				<polygon style="fill:#428EA0;" points="231.78,417.091 235.237,415.094 235.237,416.204 231.78,418.202 				"/>
			</g>
			<g>
				<polygon style="fill:#7DD8C7;" points="224.346,412.816 227.135,414.424 230.593,412.426 227.807,410.819 				"/>
				<polygon style="fill:#256372;" points="224.346,412.816 227.135,414.424 227.135,415.534 224.346,413.926 				"/>
				<polygon style="fill:#428EA0;" points="227.135,414.424 230.593,412.426 230.593,413.536 227.135,415.534 				"/>
			</g>
		</g>
		<g>
			<polygon style="fill:#7DD8C7;" points="78.012,336.206 222.214,420.239 225.672,418.242 81.473,334.209 			"/>
			<polygon style="fill:#64CCB8;" points="79.741,337.211 81.104,338.006 84.562,336.009 83.202,335.214 			"/>
			<polygon style="fill:#64CCB8;" points="82.717,338.944 84.08,339.739 87.538,337.742 86.177,336.948 			"/>
			<polygon style="fill:#64CCB8;" points="85.692,340.678 87.055,341.472 90.513,339.475 89.152,338.681 			"/>
			<polygon style="fill:#64CCB8;" points="88.667,342.411 90.031,343.206 93.488,341.208 92.128,340.414 			"/>
			<polygon style="fill:#64CCB8;" points="91.643,344.144 93.006,344.939 96.464,342.942 95.103,342.147 			"/>
			<polygon style="fill:#64CCB8;" points="94.618,345.878 95.981,346.672 99.439,344.675 98.079,343.881 			"/>
			<polygon style="fill:#64CCB8;" points="97.593,347.611 98.957,348.406 102.415,346.408 101.054,345.614 			"/>
			<polygon style="fill:#64CCB8;" points="100.569,349.344 101.932,350.139 105.39,348.142 104.029,347.347 			"/>
			<polygon style="fill:#64CCB8;" points="103.535,351.082 104.898,351.877 108.356,349.879 106.995,349.085 			"/>
			<polygon style="fill:#64CCB8;" points="106.51,352.815 107.873,353.61 111.331,351.612 109.97,350.818 			"/>
			<polygon style="fill:#64CCB8;" points="109.485,354.548 110.849,355.343 114.306,353.346 112.946,352.552 			"/>
			<polygon style="fill:#64CCB8;" points="112.461,356.282 113.824,357.076 117.282,355.079 115.921,354.285 			"/>
			<polygon style="fill:#64CCB8;" points="115.436,358.015 116.799,358.81 120.257,356.812 118.896,356.018 			"/>
			<polygon style="fill:#64CCB8;" points="118.411,359.748 119.775,360.543 123.232,358.546 121.872,357.751 			"/>
			<polygon style="fill:#64CCB8;" points="121.387,361.482 122.75,362.276 126.208,360.279 124.847,359.485 			"/>
			<polygon style="fill:#64CCB8;" points="124.362,363.215 125.725,364.009 129.183,362.012 127.823,361.218 			"/>
			<polygon style="fill:#64CCB8;" points="127.338,364.948 128.701,365.743 132.159,363.746 130.798,362.951 			"/>
			<polygon style="fill:#64CCB8;" points="130.313,366.681 131.676,367.476 135.134,365.479 133.773,364.685 			"/>
			<polygon style="fill:#64CCB8;" points="133.288,368.415 134.652,369.209 138.109,367.212 136.749,366.418 			"/>
			<polygon style="fill:#64CCB8;" points="136.264,370.148 137.627,370.943 141.085,368.945 139.724,368.151 			"/>
			<polygon style="fill:#64CCB8;" points="139.239,371.881 140.602,372.676 144.06,370.679 142.7,369.884 			"/>
			<polygon style="fill:#64CCB8;" points="142.214,373.615 143.578,374.409 147.036,372.412 145.675,371.618 			"/>
			<polygon style="fill:#64CCB8;" points="145.18,375.352 146.543,376.147 150.001,374.15 148.641,373.355 			"/>
			<polygon style="fill:#64CCB8;" points="148.156,377.086 149.519,377.88 152.977,375.883 151.616,375.089 			"/>
			<polygon style="fill:#64CCB8;" points="151.131,378.819 152.494,379.613 155.952,377.616 154.591,376.822 			"/>
			<polygon style="fill:#64CCB8;" points="154.106,380.552 155.469,381.347 158.927,379.349 157.567,378.555 			"/>
			<polygon style="fill:#64CCB8;" points="157.082,382.285 158.445,383.08 161.903,381.083 160.542,380.289 			"/>
			<polygon style="fill:#64CCB8;" points="160.057,384.019 161.42,384.813 164.878,382.816 163.518,382.022 			"/>
			<polygon style="fill:#64CCB8;" points="163.032,385.752 164.396,386.547 167.854,384.549 166.493,383.755 			"/>
			<polygon style="fill:#64CCB8;" points="166.008,387.485 167.371,388.28 170.829,386.283 169.468,385.488 			"/>
			<polygon style="fill:#64CCB8;" points="168.983,389.219 170.346,390.013 173.804,388.016 172.444,387.222 			"/>
			<polygon style="fill:#64CCB8;" points="171.958,390.952 173.322,391.746 176.78,389.749 175.419,388.955 			"/>
			<polygon style="fill:#64CCB8;" points="174.924,392.69 176.287,393.484 179.745,391.487 178.385,390.693 			"/>
			<polygon style="fill:#64CCB8;" points="177.899,394.423 179.263,395.217 182.721,393.22 181.36,392.426 			"/>
			<polygon style="fill:#64CCB8;" points="180.875,396.156 182.238,396.951 185.696,394.953 184.335,394.159 			"/>
			<polygon style="fill:#64CCB8;" points="183.85,397.889 185.214,398.684 188.671,396.687 187.311,395.893 			"/>
			<polygon style="fill:#64CCB8;" points="186.826,399.623 188.189,400.417 191.647,398.42 190.286,397.626 			"/>
			<polygon style="fill:#64CCB8;" points="189.801,401.356 191.164,402.151 194.622,400.153 193.261,399.359 			"/>
			<polygon style="fill:#64CCB8;" points="192.776,403.089 194.14,403.884 197.597,401.887 196.237,401.092 			"/>
			<polygon style="fill:#64CCB8;" points="195.752,404.823 197.115,405.617 200.573,403.62 199.212,402.826 			"/>
			<polygon style="fill:#64CCB8;" points="198.727,406.556 200.09,407.35 203.548,405.353 202.188,404.559 			"/>
			<polygon style="fill:#64CCB8;" points="201.703,408.289 203.066,409.084 206.524,407.086 205.163,406.292 			"/>
			<polygon style="fill:#64CCB8;" points="204.678,410.022 206.041,410.817 209.499,408.82 208.138,408.026 			"/>
			<polygon style="fill:#64CCB8;" points="207.653,411.756 209.017,412.55 212.474,410.553 211.114,409.759 			"/>
			<polygon style="fill:#64CCB8;" points="210.629,413.489 211.992,414.284 215.45,412.286 214.089,411.492 			"/>
			<polygon style="fill:#64CCB8;" points="213.604,415.222 214.967,416.017 218.425,414.02 217.065,413.225 			"/>
			<polygon style="fill:#64CCB8;" points="216.57,416.96 217.933,417.755 221.391,415.757 220.03,414.963 			"/>
			<polygon style="fill:#64CCB8;" points="219.545,418.693 220.908,419.488 224.366,417.491 223.006,416.696 			"/>
		</g>
	</g>
	<g>
		<line style="fill:none;stroke:#FFFFFF;stroke-miterlimit:10;" x1="131" y1="56.266" x2="370.078" y2="56.266"/>
		<text transform="matrix(1 0 0 1 130.9287 51.2783)"><tspan x="0" y="0" style="fill:#7DD8C7; font-family:'Antonio-Bold'; font-size:16.5973px; letter-spacing:3;">ISOMETRIC </tspan><tspan x="99.746" y="0" style="fill:#FFFFFF; font-family:'Antonio-Bold'; font-size:16.5973px; letter-spacing:3;">CPU</tspan><tspan x="133.409" y="0" style="fill:#7DD8C7; font-family:'Antonio-Bold'; font-size:16.5973px; letter-spacing:3;"> COLLECTION</tspan></text>
	</g>
</g>
<g id="DESIGNED_BY_FREPIK">
	<g>
		<g id="XMLID_29_">
			<g id="XMLID_48_">
				<path id="XMLID_56_" style="fill:#FFFFFF;" d="M260.103,465.465c-0.432,0.443-0.803,0.931-1.108,1.453l-0.465-0.241
					c-0.067-0.298-0.349-0.503-0.659-0.466c-0.331,0.039-0.568,0.339-0.529,0.67s0.339,0.568,0.67,0.529
					c0.065-0.008,0.127-0.026,0.184-0.052l0.452,0.234c-0.251,0.554-0.433,1.139-0.539,1.744l0.746,0.132
					c0.23-1.306,0.85-2.507,1.792-3.473L260.103,465.465z"/>
				<path id="XMLID_55_" style="fill:#FFFFFF;" d="M265.591,463.163c-0.171,0-0.341,0.006-0.51,0.017l-0.074-0.626
					c0.188-0.149,0.296-0.389,0.266-0.645c-0.046-0.393-0.402-0.674-0.795-0.628s-0.674,0.402-0.628,0.795
					c0.03,0.254,0.189,0.461,0.405,0.564l0.073,0.624c-0.714,0.116-1.403,0.332-2.06,0.646l0.327,0.684
					c0.934-0.447,1.942-0.673,2.995-0.673c0.496,0,0.993,0.053,1.475,0.158l0.161-0.741
					C266.691,463.222,266.141,463.163,265.591,463.163z"/>
				<path id="XMLID_54_" style="fill:#FFFFFF;" d="M272.193,465.711c0.331-0.04,0.566-0.341,0.525-0.672
					c-0.04-0.331-0.341-0.566-0.672-0.526c-0.309,0.038-0.535,0.304-0.53,0.609l-0.416,0.363c-0.418-0.43-0.89-0.813-1.408-1.139
					l-0.404,0.641c1.134,0.715,2.021,1.726,2.563,2.925l0.69-0.313c-0.251-0.554-0.567-1.072-0.942-1.545l0.402-0.351
					C272.064,465.716,272.128,465.719,272.193,465.711z"/>
				<path id="XMLID_53_" style="fill:#FFFFFF;" d="M265.043,473.372c-0.386,0.023-0.775,0.035-1.157,0.035
					c-0.88,0-1.733-0.061-2.478-0.179c-0.39-0.062-0.846-0.155-1.27-0.292c1.046,1.861,3.069,3.125,5.388,3.125
					c2.855,0,5.262-1.916,5.95-4.504c-0.682,0.449-1.505,0.825-2.459,1.123C267.838,473.047,266.462,473.286,265.043,473.372z"/>
				<path id="XMLID_49_" style="fill:#FFFFFF;" d="M265.591,464.68c-3.352,0-6.08,2.666-6.08,5.943c0,0.426,0.046,0.849,0.137,1.261
					c0.673,0.483,2.706,0.89,5.347,0.731c2.879-0.173,5.297-0.957,6.672-2.159c-0.005-0.195-0.021-0.39-0.045-0.582
					C271.243,466.913,268.65,464.68,265.591,464.68z M263.431,471.194c-1.02,0-1.85-0.83-1.85-1.85c0-1.02,0.83-1.85,1.85-1.85
					c1.02,0,1.85,0.83,1.85,1.85C265.281,470.365,264.451,471.194,263.431,471.194z M268.169,470.286c-0.75,0-1.36-0.61-1.36-1.36
					s0.61-1.361,1.36-1.361c0.75,0,1.361,0.61,1.361,1.361S268.919,470.286,268.169,470.286z"/>
			</g>
			<path id="XMLID_46_" style="fill:#FFFFFF;" d="M281.594,466.547c-0.295-0.116-0.806-0.309-1.382-0.237
				c-0.551,0.069-0.844,0.341-0.844,1.007v0.866h2.228v1.717h-2.228v5.455h-1.932v-5.455h-1.34v-1.717h1.34v-0.888
				c0-1.68,0.895-2.783,2.568-2.783c0.643,0,1.157,0.122,1.59,0.308L281.594,466.547z"/>
			<path id="XMLID_44_" style="fill:#FFFFFF;" d="M286.297,469.879c-0.177-0.03-0.358-0.046-0.526-0.046
				c-0.895,0-1.51,0.548-1.51,1.614v3.908h-1.932v-7.172h1.873v0.785c0.451-0.673,1.14-0.977,2.021-0.977
				c0.414,0,0.848,0.128,1.094,0.337L286.297,469.879z"/>
			<path id="XMLID_41_" style="fill:#FFFFFF;" d="M293.964,471.757c0,0.222-0.015,0.489-0.037,0.651h-5.085
				c0.207,1.036,0.933,1.488,1.843,1.488c0.622,0,1.295-0.252,1.813-0.688l1.133,1.243c-0.814,0.748-1.85,1.088-3.057,1.088
				c-2.198,0-3.723-1.495-3.723-3.753c0-2.258,1.48-3.797,3.626-3.797C292.543,467.99,293.957,469.522,293.964,471.757z
				 M288.85,471.091h3.175c-0.178-0.918-0.733-1.436-1.562-1.436C289.553,469.655,289.02,470.203,288.85,471.091z"/>
			<path id="XMLID_38_" style="fill:#FFFFFF;" d="M301.617,471.757c0,0.222-0.015,0.489-0.037,0.651h-5.085
				c0.207,1.036,0.933,1.488,1.843,1.488c0.622,0,1.295-0.252,1.813-0.688l1.132,1.243c-0.814,0.748-1.85,1.088-3.057,1.088
				c-2.198,0-3.723-1.495-3.723-3.753c0-2.258,1.48-3.797,3.627-3.797C300.196,467.99,301.61,469.522,301.617,471.757z
				 M296.503,471.091h3.175c-0.178-0.918-0.733-1.436-1.562-1.436C297.206,469.655,296.673,470.203,296.503,471.091z"/>
			<path id="XMLID_35_" style="fill:#FFFFFF;" d="M309.963,471.764c0,2.154-1.495,3.775-3.471,3.775
				c-0.962,0-1.643-0.378-2.109-0.933v3.708h-1.924v-10.133h1.887v0.792c0.466-0.585,1.155-0.984,2.139-0.984
				C308.468,467.99,309.963,469.61,309.963,471.764z M304.286,471.764c0,1.132,0.747,1.976,1.843,1.976
				c1.14,0,1.85-0.881,1.85-1.976c0-1.095-0.711-1.976-1.85-1.976C305.034,469.788,304.286,470.632,304.286,471.764z"/>
			<path id="XMLID_32_" style="fill:#FFFFFF;" d="M313.067,465.836c0,0.696-0.54,1.229-1.236,1.229
				c-0.696,0-1.229-0.533-1.229-1.229c0-0.696,0.533-1.243,1.229-1.243C312.526,464.592,313.067,465.14,313.067,465.836z
				 M312.808,475.354h-1.932v-7.172h1.932V475.354z"/>
			<path id="XMLID_30_" style="fill:#FFFFFF;" d="M316.031,470.736l2.701-2.554h2.369l-3.479,3.375l3.501,3.797h-2.376l-2.716-2.901
				v2.901h-1.932v-10.658h1.932V470.736z"/>
		</g>
		<g>
			<path style="fill:#FFFFFF;" d="M184.411,475.289v-1.055c-0.527,0.718-1.391,1.23-2.387,1.23c-1.846,0-3.149-1.406-3.149-3.706
				c0-2.256,1.289-3.721,3.149-3.721c0.952,0,1.816,0.469,2.387,1.245v-3.765h1.099v9.77H184.411z M184.411,473.37v-3.208
				c-0.395-0.615-1.245-1.143-2.124-1.143c-1.421,0-2.27,1.172-2.27,2.739c0,1.567,0.85,2.724,2.27,2.724
				C183.167,474.483,184.016,473.986,184.411,473.37z"/>
			<path style="fill:#FFFFFF;" d="M186.931,471.744c0-2.051,1.465-3.706,3.486-3.706c2.139,0,3.398,1.67,3.398,3.794v0.279h-5.727
				c0.088,1.333,1.025,2.446,2.549,2.446c0.805,0,1.626-0.322,2.182-0.894l0.527,0.718c-0.703,0.703-1.655,1.084-2.812,1.084
				C188.439,475.465,186.931,473.956,186.931,471.744z M190.402,468.947c-1.509,0-2.256,1.274-2.314,2.358h4.643
				C192.717,470.25,192.014,468.947,190.402,468.947z"/>
			<path style="fill:#FFFFFF;" d="M194.606,474.351l0.571-0.791c0.469,0.542,1.362,1.011,2.329,1.011c1.084,0,1.67-0.513,1.67-1.216
				c0-1.714-4.38-0.659-4.38-3.281c0-1.098,0.952-2.036,2.636-2.036c1.201,0,2.051,0.454,2.622,1.026l-0.513,0.762
				c-0.425-0.513-1.201-0.894-2.109-0.894c-0.967,0-1.567,0.483-1.567,1.113c0,1.552,4.38,0.527,4.38,3.281
				c0,1.187-0.952,2.138-2.783,2.138C196.305,475.465,195.324,475.113,194.606,474.351z"/>
			<path style="fill:#FFFFFF;" d="M201.476,466.471c0-0.41,0.337-0.747,0.732-0.747c0.41,0,0.747,0.337,0.747,0.747
				c0,0.41-0.337,0.732-0.747,0.732C201.813,467.203,201.476,466.881,201.476,466.471z M201.666,475.289v-7.075h1.099v7.075H201.666
				z"/>
			<path style="fill:#FFFFFF;" d="M204.581,477.105l0.556-0.82c0.586,0.703,1.289,0.967,2.3,0.967c1.172,0,2.27-0.571,2.27-2.124
				v-1.011c-0.513,0.718-1.377,1.26-2.373,1.26c-1.845,0-3.149-1.377-3.149-3.662c0-2.27,1.289-3.677,3.149-3.677
				c0.952,0,1.802,0.469,2.373,1.245v-1.069h1.099v6.87c0,2.344-1.641,3.076-3.369,3.076
				C206.236,478.16,205.416,477.926,204.581,477.105z M209.708,473.253v-3.091c-0.381-0.615-1.23-1.143-2.109-1.143
				c-1.421,0-2.27,1.128-2.27,2.695c0,1.553,0.849,2.695,2.27,2.695C208.477,474.41,209.327,473.868,209.708,473.253z"/>
			<path style="fill:#FFFFFF;" d="M217.412,475.289v-4.629c0-1.245-0.63-1.641-1.582-1.641c-0.865,0-1.685,0.527-2.095,1.099v5.17
				h-1.099v-7.075h1.099v1.025c0.498-0.586,1.465-1.201,2.519-1.201c1.48,0,2.256,0.747,2.256,2.285v4.966H217.412z"/>
			<path style="fill:#FFFFFF;" d="M219.931,471.744c0-2.051,1.465-3.706,3.486-3.706c2.138,0,3.398,1.67,3.398,3.794v0.279h-5.727
				c0.088,1.333,1.025,2.446,2.549,2.446c0.806,0,1.626-0.322,2.183-0.894l0.527,0.718c-0.703,0.703-1.655,1.084-2.812,1.084
				C221.44,475.465,219.931,473.956,219.931,471.744z M223.403,468.947c-1.509,0-2.256,1.274-2.314,2.358h4.643
				C225.717,470.25,225.014,468.947,223.403,468.947z"/>
			<path style="fill:#FFFFFF;" d="M233.349,475.289v-1.055c-0.527,0.718-1.392,1.23-2.388,1.23c-1.845,0-3.149-1.406-3.149-3.706
				c0-2.256,1.289-3.721,3.149-3.721c0.952,0,1.817,0.469,2.388,1.245v-3.765h1.098v9.77H233.349z M233.349,473.37v-3.208
				c-0.396-0.615-1.245-1.143-2.124-1.143c-1.421,0-2.27,1.172-2.27,2.739c0,1.567,0.849,2.724,2.27,2.724
				C232.104,474.483,232.953,473.986,233.349,473.37z"/>
			<path style="fill:#FFFFFF;" d="M239.691,475.289v-9.77h1.098v3.765c0.572-0.776,1.421-1.245,2.388-1.245
				c1.845,0,3.149,1.465,3.149,3.721c0,2.299-1.304,3.706-3.149,3.706c-0.996,0-1.86-0.513-2.388-1.23v1.055H239.691z
				 M242.899,474.483c1.436,0,2.286-1.157,2.286-2.724c0-1.568-0.85-2.739-2.286-2.739c-0.864,0-1.728,0.527-2.109,1.143v3.208
				C241.17,473.986,242.035,474.483,242.899,474.483z"/>
			<path style="fill:#FFFFFF;" d="M247.527,477.061c0.161,0.073,0.425,0.117,0.601,0.117c0.483,0,0.805-0.161,1.055-0.747
				l0.469-1.069l-2.959-7.148h1.187l2.358,5.8l2.344-5.8h1.201l-3.545,8.51c-0.425,1.025-1.143,1.421-2.08,1.435
				c-0.234,0-0.601-0.044-0.805-0.103L247.527,477.061z"/>
		</g>
	</g>
</g>
</svg>
